<svg xmlns="http://www.w3.org/2000/svg" version="1.1" xmlns:xlink="http://www.w3.org/1999/xlink" xmlns:svgjs="http://svgjs.dev/svgjs" width="128" height="128" viewBox="0 0 128 128"><g transform="matrix(0.8046875,0,0,0.8046875,12.760752631578946,12.760752631578946)"><svg viewBox="0 0 95 95" data-background-color="#ffffff" preserveAspectRatio="xMidYMid meet" height="128" width="128" xmlns="http://www.w3.org/2000/svg" xmlns:xlink="http://www.w3.org/1999/xlink"><g id="tight-bounds" transform="matrix(1,0,0,1,-0.24049999999999727,-0.24049999999999727)"><svg viewBox="0 0 95.481 95.481" height="95.481" width="95.481"><g><svg viewBox="0 0 95.481 95.481" height="95.481" width="95.481"><g><svg viewBox="0 0 95.481 95.481" height="95.481" width="95.481"><g id="textblocktransform"><svg viewBox="0 0 95.481 95.481" height="95.481" width="95.481" id="textblock"><g><svg viewBox="0 0 95.481 95.481" height="95.481" width="95.481"><g><svg viewBox="0 0 95.481 95.481" height="95.481" width="95.481"><g><svg xmlns="http://www.w3.org/2000/svg" xmlns:xlink="http://www.w3.org/1999/xlink" version="1.1" x="0" y="0" viewBox="5 5 90 90" enable-background="new 0 0 100 100" xml:space="preserve" height="95.481" width="95.481" class="icon-icon-0" data-fill-palette-color="accent" id="icon-0"><path d="M37.8 54.5C37 54.5 36.3 55.4 36.3 56.6V70.7C36.3 71.8 37 72.7 37.8 72.7H62.1C63 72.7 63.6 71.8 63.6 70.7V56.5C63.6 55.3 62.9 54.4 62.1 54.4H37.8zM40.7 68.2V59.1H45.7V68.2zM36.3 29C35.2 29 34.3 29.9 34.3 31.1V44.2C34.3 45.4 35.2 46.3 36.3 46.3H63.6C64.8 46.3 65.7 45.4 65.7 44.2V31.1C65.7 29.9 64.8 29 63.6 29zM50 5C25.1 5 5 25.1 5 50S25.1 95 50 95 95 74.9 95 50 74.9 5 50 5M74.7 72.7C74.7 73.8 73.8 74.8 72.7 74.8H32.3C31.7 74.8 31.2 74.5 30.8 74.2L25.8 69.1C25.4 68.7 25.2 68.2 25.2 67.7V27.3C25.2 26.1 26.1 25.2 27.3 25.2H72.7C73.8 25.2 74.7 26.1 74.7 27.3z" fill="#0074d9" data-fill-palette-color="accent"></path></svg></g></svg></g></svg></g></svg></g></svg></g></svg></g><defs></defs></svg><rect width="95.481" height="95.481" fill="none" stroke="none" visibility="hidden"></rect></g></svg></g></svg>